<mxfile host="app.diagrams.net" modified="2020-09-17T11:47:54.662Z" agent="5.0 (Windows NT 10.0; Win64; x64) AppleWebKit/537.36 (KHTML, like Gecko) Chrome/85.0.4183.102 Safari/537.36" etag="RYworPwQyyS27cWHMq0h" version="13.6.10" type="github">
  <diagram id="J9oQ7YEbLdYVICq-9z-E" name="Page-1">
    <mxGraphModel dx="1038" dy="580" grid="0" gridSize="10" guides="1" tooltips="1" connect="1" arrows="1" fold="1" page="1" pageScale="1" pageWidth="850" pageHeight="1100" math="0" shadow="0">
      <root>
        <mxCell id="0" />
        <mxCell id="1" parent="0" />
        <mxCell id="SAiguCN7g2tJS7Ev6xJh-11" value="" style="shape=image;html=1;verticalAlign=top;verticalLabelPosition=bottom;labelBackgroundColor=#ffffff;imageAspect=0;aspect=fixed;image=https://cdn0.iconfinder.com/data/icons/elasto-online-store/26/00-ELASTOFONT-STORE-READY_bank-128.png" parent="1" vertex="1">
          <mxGeometry x="11" y="364.25" width="41" height="41" as="geometry" />
        </mxCell>
        <mxCell id="SAiguCN7g2tJS7Ev6xJh-13" value="" style="shape=image;html=1;verticalAlign=top;verticalLabelPosition=bottom;labelBackgroundColor=#ffffff;imageAspect=0;aspect=fixed;image=https://cdn3.iconfinder.com/data/icons/google-material-design-icons/48/ic_payment_48px-128.png" parent="1" vertex="1">
          <mxGeometry x="99" y="358" width="50.5" height="50.5" as="geometry" />
        </mxCell>
        <mxCell id="SAiguCN7g2tJS7Ev6xJh-14" value="ACH" style="text;html=1;align=center;verticalAlign=middle;resizable=0;points=[];autosize=1;" parent="1" vertex="1">
          <mxGeometry x="11" y="409" width="36" height="18" as="geometry" />
        </mxCell>
        <mxCell id="SAiguCN7g2tJS7Ev6xJh-16" value="CC/DC" style="text;html=1;align=center;verticalAlign=middle;resizable=0;points=[];autosize=1;" parent="1" vertex="1">
          <mxGeometry x="98.5" y="406.25" width="48" height="18" as="geometry" />
        </mxCell>
        <mxCell id="SAiguCN7g2tJS7Ev6xJh-20" value="CRM-US" style="rounded=1;whiteSpace=wrap;html=1;" parent="1" vertex="1">
          <mxGeometry x="25" y="205" width="108.5" height="42" as="geometry" />
        </mxCell>
        <mxCell id="SAiguCN7g2tJS7Ev6xJh-21" value="CRM-CA" style="rounded=1;whiteSpace=wrap;html=1;" parent="1" vertex="1">
          <mxGeometry x="197" y="208" width="108.5" height="42" as="geometry" />
        </mxCell>
        <mxCell id="SAiguCN7g2tJS7Ev6xJh-22" value="CBTS-US" style="rounded=1;whiteSpace=wrap;html=1;" parent="1" vertex="1">
          <mxGeometry x="369" y="205" width="108.5" height="42" as="geometry" />
        </mxCell>
        <mxCell id="SAiguCN7g2tJS7Ev6xJh-23" value="CBTS-CA" style="rounded=1;whiteSpace=wrap;html=1;" parent="1" vertex="1">
          <mxGeometry x="555" y="205" width="108.5" height="42" as="geometry" />
        </mxCell>
        <mxCell id="SAiguCN7g2tJS7Ev6xJh-24" value="CBTS-UK" style="rounded=1;whiteSpace=wrap;html=1;" parent="1" vertex="1">
          <mxGeometry x="734" y="202" width="108.5" height="42" as="geometry" />
        </mxCell>
        <mxCell id="SAiguCN7g2tJS7Ev6xJh-26" value="&lt;font style=&quot;font-size: 19px&quot;&gt;Simple Payment&lt;/font&gt;" style="rounded=0;whiteSpace=wrap;html=1;" parent="1" vertex="1">
          <mxGeometry x="303" y="32" width="228" height="60" as="geometry" />
        </mxCell>
        <mxCell id="SAiguCN7g2tJS7Ev6xJh-30" value="" style="endArrow=none;html=1;" parent="1" edge="1">
          <mxGeometry width="50" height="50" relative="1" as="geometry">
            <mxPoint x="81" y="148" as="sourcePoint" />
            <mxPoint x="786" y="148" as="targetPoint" />
          </mxGeometry>
        </mxCell>
        <mxCell id="SAiguCN7g2tJS7Ev6xJh-31" value="" style="endArrow=none;html=1;" parent="1" edge="1">
          <mxGeometry width="50" height="50" relative="1" as="geometry">
            <mxPoint x="417" y="205" as="sourcePoint" />
            <mxPoint x="417" y="147" as="targetPoint" />
          </mxGeometry>
        </mxCell>
        <mxCell id="SAiguCN7g2tJS7Ev6xJh-32" value="" style="endArrow=none;html=1;" parent="1" edge="1">
          <mxGeometry width="50" height="50" relative="1" as="geometry">
            <mxPoint x="81" y="205" as="sourcePoint" />
            <mxPoint x="81" y="147" as="targetPoint" />
          </mxGeometry>
        </mxCell>
        <mxCell id="SAiguCN7g2tJS7Ev6xJh-33" value="" style="endArrow=none;html=1;" parent="1" edge="1">
          <mxGeometry width="50" height="50" relative="1" as="geometry">
            <mxPoint x="247" y="205" as="sourcePoint" />
            <mxPoint x="247" y="147" as="targetPoint" />
          </mxGeometry>
        </mxCell>
        <mxCell id="SAiguCN7g2tJS7Ev6xJh-34" value="" style="endArrow=none;html=1;" parent="1" edge="1">
          <mxGeometry width="50" height="50" relative="1" as="geometry">
            <mxPoint x="787.75" y="202" as="sourcePoint" />
            <mxPoint x="788" y="149" as="targetPoint" />
          </mxGeometry>
        </mxCell>
        <mxCell id="SAiguCN7g2tJS7Ev6xJh-35" value="" style="endArrow=none;html=1;" parent="1" edge="1">
          <mxGeometry width="50" height="50" relative="1" as="geometry">
            <mxPoint x="608.75" y="205" as="sourcePoint" />
            <mxPoint x="608.75" y="147" as="targetPoint" />
          </mxGeometry>
        </mxCell>
        <mxCell id="SAiguCN7g2tJS7Ev6xJh-36" value="" style="endArrow=none;html=1;" parent="1" edge="1">
          <mxGeometry width="50" height="50" relative="1" as="geometry">
            <mxPoint x="417" y="152" as="sourcePoint" />
            <mxPoint x="417" y="94" as="targetPoint" />
          </mxGeometry>
        </mxCell>
        <mxCell id="SAiguCN7g2tJS7Ev6xJh-45" value="" style="strokeWidth=1;html=1;shape=mxgraph.flowchart.annotation_2;align=left;labelPosition=right;pointerEvents=1;direction=south;" parent="1" vertex="1">
          <mxGeometry x="27.5" y="247" width="98.5" height="111" as="geometry" />
        </mxCell>
        <mxCell id="SAiguCN7g2tJS7Ev6xJh-47" value="" style="strokeWidth=1;html=1;shape=mxgraph.flowchart.annotation_2;align=left;labelPosition=right;pointerEvents=1;direction=south;" parent="1" vertex="1">
          <mxGeometry x="367.75" y="250" width="98.5" height="111" as="geometry" />
        </mxCell>
        <mxCell id="SAiguCN7g2tJS7Ev6xJh-52" value="" style="shape=image;html=1;verticalAlign=top;verticalLabelPosition=bottom;labelBackgroundColor=#ffffff;imageAspect=0;aspect=fixed;image=https://cdn0.iconfinder.com/data/icons/elasto-online-store/26/00-ELASTOFONT-STORE-READY_bank-128.png" parent="1" vertex="1">
          <mxGeometry x="350" y="368" width="41" height="41" as="geometry" />
        </mxCell>
        <mxCell id="SAiguCN7g2tJS7Ev6xJh-53" value="" style="shape=image;html=1;verticalAlign=top;verticalLabelPosition=bottom;labelBackgroundColor=#ffffff;imageAspect=0;aspect=fixed;image=https://cdn3.iconfinder.com/data/icons/google-material-design-icons/48/ic_payment_48px-128.png" parent="1" vertex="1">
          <mxGeometry x="446" y="362.5" width="49.5" height="49.5" as="geometry" />
        </mxCell>
        <mxCell id="SAiguCN7g2tJS7Ev6xJh-54" value="ACH" style="text;html=1;align=center;verticalAlign=middle;resizable=0;points=[];autosize=1;" parent="1" vertex="1">
          <mxGeometry x="355" y="412.5" width="36" height="18" as="geometry" />
        </mxCell>
        <mxCell id="SAiguCN7g2tJS7Ev6xJh-55" value="CC/DC" style="text;html=1;align=center;verticalAlign=middle;resizable=0;points=[];autosize=1;" parent="1" vertex="1">
          <mxGeometry x="447.5" y="412" width="48" height="18" as="geometry" />
        </mxCell>
        <mxCell id="SAiguCN7g2tJS7Ev6xJh-59" value="" style="shape=image;html=1;verticalAlign=top;verticalLabelPosition=bottom;labelBackgroundColor=#ffffff;imageAspect=0;aspect=fixed;image=https://cdn3.iconfinder.com/data/icons/tango-icon-library/48/process-stop-128.png;strokeColor=#000000;strokeWidth=1;" parent="1" vertex="1">
          <mxGeometry x="763.25" y="305" width="50" height="50" as="geometry" />
        </mxCell>
        <mxCell id="SAiguCN7g2tJS7Ev6xJh-60" value="" style="endArrow=none;html=1;" parent="1" edge="1">
          <mxGeometry width="50" height="50" relative="1" as="geometry">
            <mxPoint x="787.25" y="302" as="sourcePoint" />
            <mxPoint x="787.25" y="244" as="targetPoint" />
          </mxGeometry>
        </mxCell>
        <mxCell id="3agMhINum5lRsY7JjDlr-2" value="" style="shape=image;html=1;verticalAlign=top;verticalLabelPosition=bottom;labelBackgroundColor=#ffffff;imageAspect=0;aspect=fixed;image=https://cdn0.iconfinder.com/data/icons/elasto-online-store/26/00-ELASTOFONT-STORE-READY_bank-128.png" parent="1" vertex="1">
          <mxGeometry x="226" y="314" width="41" height="41" as="geometry" />
        </mxCell>
        <mxCell id="3agMhINum5lRsY7JjDlr-3" value="CEFT" style="text;html=1;align=center;verticalAlign=middle;resizable=0;points=[];autosize=1;" parent="1" vertex="1">
          <mxGeometry x="226" y="355" width="41" height="18" as="geometry" />
        </mxCell>
        <mxCell id="3agMhINum5lRsY7JjDlr-9" value="" style="shape=image;html=1;verticalAlign=top;verticalLabelPosition=bottom;labelBackgroundColor=#ffffff;imageAspect=0;aspect=fixed;image=https://cdn0.iconfinder.com/data/icons/elasto-online-store/26/00-ELASTOFONT-STORE-READY_bank-128.png" parent="1" vertex="1">
          <mxGeometry x="543" y="317" width="41" height="41" as="geometry" />
        </mxCell>
        <mxCell id="3agMhINum5lRsY7JjDlr-10" value="" style="shape=image;html=1;verticalAlign=top;verticalLabelPosition=bottom;labelBackgroundColor=#ffffff;imageAspect=0;aspect=fixed;image=https://cdn0.iconfinder.com/data/icons/elasto-online-store/26/00-ELASTOFONT-STORE-READY_bank-128.png" parent="1" vertex="1">
          <mxGeometry x="640" y="317" width="41" height="41" as="geometry" />
        </mxCell>
        <mxCell id="3agMhINum5lRsY7JjDlr-11" value="" style="strokeWidth=1;html=1;shape=mxgraph.flowchart.annotation_2;align=left;labelPosition=right;pointerEvents=1;direction=south;" parent="1" vertex="1">
          <mxGeometry x="560" y="247" width="98.5" height="65" as="geometry" />
        </mxCell>
        <mxCell id="3agMhINum5lRsY7JjDlr-12" value="ACH" style="text;html=1;align=center;verticalAlign=middle;resizable=0;points=[];autosize=1;" parent="1" vertex="1">
          <mxGeometry x="545.5" y="358" width="36" height="18" as="geometry" />
        </mxCell>
        <mxCell id="3agMhINum5lRsY7JjDlr-13" value="CEFT" style="text;html=1;align=center;verticalAlign=middle;resizable=0;points=[];autosize=1;" parent="1" vertex="1">
          <mxGeometry x="640" y="358" width="41" height="18" as="geometry" />
        </mxCell>
        <mxCell id="9vIhl7H0HvSpt7enOpmk-1" value="" style="endArrow=none;html=1;" parent="1" edge="1">
          <mxGeometry width="50" height="50" relative="1" as="geometry">
            <mxPoint x="246" y="308" as="sourcePoint" />
            <mxPoint x="246" y="250" as="targetPoint" />
          </mxGeometry>
        </mxCell>
        <mxCell id="cGAqBPdDBswRHycrWecM-1" value="Network downtime - EPS" style="rounded=1;whiteSpace=wrap;html=1;" vertex="1" parent="1">
          <mxGeometry x="302" y="1138" width="246" height="43" as="geometry" />
        </mxCell>
        <mxCell id="cGAqBPdDBswRHycrWecM-2" value="" style="endArrow=classic;html=1;" edge="1" parent="1">
          <mxGeometry width="50" height="50" relative="1" as="geometry">
            <mxPoint x="124" y="1241" as="sourcePoint" />
            <mxPoint x="124" y="1303" as="targetPoint" />
          </mxGeometry>
        </mxCell>
        <mxCell id="cGAqBPdDBswRHycrWecM-3" value="" style="endArrow=none;html=1;" edge="1" parent="1">
          <mxGeometry width="50" height="50" relative="1" as="geometry">
            <mxPoint x="424.5" y="1239" as="sourcePoint" />
            <mxPoint x="424.5" y="1181" as="targetPoint" />
          </mxGeometry>
        </mxCell>
        <mxCell id="cGAqBPdDBswRHycrWecM-4" value="" style="endArrow=none;html=1;" edge="1" parent="1">
          <mxGeometry width="50" height="50" relative="1" as="geometry">
            <mxPoint x="124" y="1240" as="sourcePoint" />
            <mxPoint x="758" y="1240" as="targetPoint" />
          </mxGeometry>
        </mxCell>
        <mxCell id="cGAqBPdDBswRHycrWecM-5" value="" style="endArrow=classic;html=1;" edge="1" parent="1">
          <mxGeometry width="50" height="50" relative="1" as="geometry">
            <mxPoint x="424.5" y="1241" as="sourcePoint" />
            <mxPoint x="424.5" y="1303" as="targetPoint" />
          </mxGeometry>
        </mxCell>
        <mxCell id="cGAqBPdDBswRHycrWecM-6" value="" style="endArrow=classic;html=1;" edge="1" parent="1">
          <mxGeometry width="50" height="50" relative="1" as="geometry">
            <mxPoint x="758" y="1239" as="sourcePoint" />
            <mxPoint x="758" y="1301" as="targetPoint" />
          </mxGeometry>
        </mxCell>
        <mxCell id="cGAqBPdDBswRHycrWecM-7" value="Disable Edit/Add option for ACH." style="rounded=1;whiteSpace=wrap;html=1;" vertex="1" parent="1">
          <mxGeometry x="72.25" y="1303" width="108.5" height="42" as="geometry" />
        </mxCell>
        <mxCell id="cGAqBPdDBswRHycrWecM-8" value="If ACH/CEFT Down" style="text;html=1;align=center;verticalAlign=middle;resizable=0;points=[];autosize=1;" vertex="1" parent="1">
          <mxGeometry x="11" y="1256" width="113" height="18" as="geometry" />
        </mxCell>
        <mxCell id="cGAqBPdDBswRHycrWecM-9" value="Disable Edit/Add option for CC/ACH/CEFT." style="rounded=1;whiteSpace=wrap;html=1;" vertex="1" parent="1">
          <mxGeometry x="375" y="1303" width="108.5" height="42" as="geometry" />
        </mxCell>
        <mxCell id="cGAqBPdDBswRHycrWecM-10" value="If CC/ACH/CEFT Down" style="text;html=1;align=center;verticalAlign=middle;resizable=0;points=[];autosize=1;" vertex="1" parent="1">
          <mxGeometry x="291" y="1253" width="135" height="18" as="geometry" />
        </mxCell>
        <mxCell id="cGAqBPdDBswRHycrWecM-11" value="If CC Down" style="text;html=1;align=center;verticalAlign=middle;resizable=0;points=[];autosize=1;" vertex="1" parent="1">
          <mxGeometry x="762" y="1247" width="72" height="18" as="geometry" />
        </mxCell>
        <mxCell id="cGAqBPdDBswRHycrWecM-12" value="Disable Edit/Add option for CC." style="rounded=1;whiteSpace=wrap;html=1;" vertex="1" parent="1">
          <mxGeometry x="707" y="1303" width="108.5" height="42" as="geometry" />
        </mxCell>
        <mxCell id="cGAqBPdDBswRHycrWecM-13" value="" style="endArrow=none;dashed=1;html=1;dashPattern=1 3;strokeWidth=2;" edge="1" parent="1">
          <mxGeometry width="50" height="50" relative="1" as="geometry">
            <mxPoint x="6.25" y="1120" as="sourcePoint" />
            <mxPoint x="852.25" y="1120" as="targetPoint" />
          </mxGeometry>
        </mxCell>
        <mxCell id="cGAqBPdDBswRHycrWecM-14" value="" style="endArrow=none;dashed=1;html=1;dashPattern=1 3;strokeWidth=2;" edge="1" parent="1">
          <mxGeometry width="50" height="50" relative="1" as="geometry">
            <mxPoint x="4" y="1409" as="sourcePoint" />
            <mxPoint x="4" y="1115" as="targetPoint" />
          </mxGeometry>
        </mxCell>
        <mxCell id="cGAqBPdDBswRHycrWecM-15" value="" style="endArrow=none;dashed=1;html=1;dashPattern=1 3;strokeWidth=2;" edge="1" parent="1">
          <mxGeometry width="50" height="50" relative="1" as="geometry">
            <mxPoint x="6" y="1407" as="sourcePoint" />
            <mxPoint x="38" y="1407" as="targetPoint" />
          </mxGeometry>
        </mxCell>
        <mxCell id="cGAqBPdDBswRHycrWecM-16" value="" style="endArrow=none;dashed=1;html=1;dashPattern=1 3;strokeWidth=2;" edge="1" parent="1">
          <mxGeometry width="50" height="50" relative="1" as="geometry">
            <mxPoint x="853" y="1409" as="sourcePoint" />
            <mxPoint x="853" y="1115" as="targetPoint" />
          </mxGeometry>
        </mxCell>
        <mxCell id="cGAqBPdDBswRHycrWecM-17" value="" style="endArrow=none;dashed=1;html=1;dashPattern=1 3;strokeWidth=2;" edge="1" parent="1">
          <mxGeometry width="50" height="50" relative="1" as="geometry">
            <mxPoint x="828" y="1409" as="sourcePoint" />
            <mxPoint x="854" y="1409" as="targetPoint" />
          </mxGeometry>
        </mxCell>
        <mxCell id="cGAqBPdDBswRHycrWecM-18" value="" style="strokeWidth=1;html=1;shape=mxgraph.flowchart.annotation_2;align=left;labelPosition=right;pointerEvents=1;direction=north;" vertex="1" parent="1">
          <mxGeometry x="62.5" y="412" width="739" height="116" as="geometry" />
        </mxCell>
        <mxCell id="cGAqBPdDBswRHycrWecM-19" value="Account number and Invoice (Currency)&amp;nbsp;" style="rounded=1;whiteSpace=wrap;html=1;" vertex="1" parent="1">
          <mxGeometry x="309" y="529" width="246" height="43" as="geometry" />
        </mxCell>
        <mxCell id="cGAqBPdDBswRHycrWecM-20" value="" style="endArrow=none;html=1;" edge="1" parent="1">
          <mxGeometry width="50" height="50" relative="1" as="geometry">
            <mxPoint x="431" y="623" as="sourcePoint" />
            <mxPoint x="431" y="572" as="targetPoint" />
          </mxGeometry>
        </mxCell>
        <mxCell id="cGAqBPdDBswRHycrWecM-21" value="" style="endArrow=none;html=1;" edge="1" parent="1">
          <mxGeometry width="50" height="50" relative="1" as="geometry">
            <mxPoint x="230" y="625" as="sourcePoint" />
            <mxPoint x="662" y="625" as="targetPoint" />
          </mxGeometry>
        </mxCell>
        <mxCell id="cGAqBPdDBswRHycrWecM-22" value="CC/DB" style="text;html=1;align=center;verticalAlign=middle;resizable=0;points=[];autosize=1;" vertex="1" parent="1">
          <mxGeometry x="313" y="608" width="48" height="18" as="geometry" />
        </mxCell>
        <mxCell id="cGAqBPdDBswRHycrWecM-23" value="ACH/CEFT" style="text;html=1;align=center;verticalAlign=middle;resizable=0;points=[];autosize=1;" vertex="1" parent="1">
          <mxGeometry x="549" y="608" width="70" height="18" as="geometry" />
        </mxCell>
        <mxCell id="cGAqBPdDBswRHycrWecM-24" value="" style="endArrow=classic;html=1;" edge="1" parent="1">
          <mxGeometry width="50" height="50" relative="1" as="geometry">
            <mxPoint x="230" y="626" as="sourcePoint" />
            <mxPoint x="230" y="688" as="targetPoint" />
          </mxGeometry>
        </mxCell>
        <mxCell id="cGAqBPdDBswRHycrWecM-25" value="" style="endArrow=classic;html=1;" edge="1" parent="1">
          <mxGeometry width="50" height="50" relative="1" as="geometry">
            <mxPoint x="663.5" y="626" as="sourcePoint" />
            <mxPoint x="663.5" y="688" as="targetPoint" />
          </mxGeometry>
        </mxCell>
        <mxCell id="cGAqBPdDBswRHycrWecM-26" value="Check Credit card payment is allowed by Account number&amp;nbsp;" style="rounded=1;whiteSpace=wrap;html=1;" vertex="1" parent="1">
          <mxGeometry x="115" y="688" width="246" height="43" as="geometry" />
        </mxCell>
        <mxCell id="cGAqBPdDBswRHycrWecM-27" value="" style="endArrow=classic;html=1;" edge="1" parent="1">
          <mxGeometry width="50" height="50" relative="1" as="geometry">
            <mxPoint x="84" y="775" as="sourcePoint" />
            <mxPoint x="84" y="826" as="targetPoint" />
          </mxGeometry>
        </mxCell>
        <mxCell id="cGAqBPdDBswRHycrWecM-28" value="" style="endArrow=none;html=1;" edge="1" parent="1">
          <mxGeometry width="50" height="50" relative="1" as="geometry">
            <mxPoint x="228" y="773" as="sourcePoint" />
            <mxPoint x="228" y="731" as="targetPoint" />
          </mxGeometry>
        </mxCell>
        <mxCell id="cGAqBPdDBswRHycrWecM-29" value="" style="endArrow=none;html=1;" edge="1" parent="1">
          <mxGeometry width="50" height="50" relative="1" as="geometry">
            <mxPoint x="85" y="774" as="sourcePoint" />
            <mxPoint x="379" y="774" as="targetPoint" />
          </mxGeometry>
        </mxCell>
        <mxCell id="cGAqBPdDBswRHycrWecM-30" value="" style="endArrow=classic;html=1;" edge="1" parent="1">
          <mxGeometry width="50" height="50" relative="1" as="geometry">
            <mxPoint x="379" y="773" as="sourcePoint" />
            <mxPoint x="379" y="824" as="targetPoint" />
          </mxGeometry>
        </mxCell>
        <mxCell id="cGAqBPdDBswRHycrWecM-31" value="Yes" style="text;html=1;align=center;verticalAlign=middle;resizable=0;points=[];autosize=1;" vertex="1" parent="1">
          <mxGeometry x="91" y="783" width="29" height="18" as="geometry" />
        </mxCell>
        <mxCell id="cGAqBPdDBswRHycrWecM-32" value="&lt;span style=&quot;color: rgb(0 , 0 , 0) ; font-family: &amp;#34;helvetica&amp;#34; ; font-size: 12px ; font-style: normal ; font-weight: 400 ; letter-spacing: normal ; text-align: center ; text-indent: 0px ; text-transform: none ; word-spacing: 0px ; background-color: rgb(248 , 249 , 250) ; display: inline ; float: none&quot;&gt;No&lt;/span&gt;" style="text;whiteSpace=wrap;html=1;" vertex="1" parent="1">
          <mxGeometry x="349.9999755859375" y="778" width="39" height="28" as="geometry" />
        </mxCell>
      </root>
    </mxGraphModel>
  </diagram>
</mxfile>
